<?xml version="1.0" encoding="UTF-8" standalone="no"?>
<svg
   width="1024px"
   height="1024px"
   viewBox="0 0 1024 1024"
   version="1.1"
   id="svg23"
   sodipodi:docname="nextdns.svg"
   inkscape:version="1.1.2 (b8e25be833, 2022-02-05)"
   xmlns:inkscape="http://www.inkscape.org/namespaces/inkscape"
   xmlns:sodipodi="http://sodipodi.sourceforge.net/DTD/sodipodi-0.dtd"
   xmlns="http://www.w3.org/2000/svg"
   xmlns:svg="http://www.w3.org/2000/svg">
  <defs
     id="defs27" />
  <sodipodi:namedview
     id="namedview25"
     pagecolor="#ffffff"
     bordercolor="#666666"
     borderopacity="1.0"
     inkscape:pageshadow="2"
     inkscape:pageopacity="0.0"
     inkscape:pagecheckerboard="0"
     showgrid="false"
     inkscape:zoom="0.7890625"
     inkscape:cx="261.70297"
     inkscape:cy="512"
     inkscape:window-width="1920"
     inkscape:window-height="1017"
     inkscape:window-x="-8"
     inkscape:window-y="-8"
     inkscape:window-maximized="1"
     inkscape:current-layer="svg23" />
  <circle
     cx="512"
     cy="512"
     r="512"
     style="fill:#05f"
     id="circle19" />
  <path
     d="M381.1 602.6c-33.8-54.5-54.6-117.3-57.6-181.5-1-15.3-1-30.6.1-45.9 49.5-9.9 96.8-28.9 140.9-53.2 16.9-9.5 33.5-19.4 49-31.1 35.9 26 75.4 47 116.8 62.7-83.1 82.8-165.8 166.2-249.2 249zm285-237C577.8 454.2 489.2 542.4 400.9 631c30.5 39.9 67.5 75.3 110.1 102.2 64.8-42.1 119-101.2 152.5-171 28.2-58.2 40.1-123.8 36.4-188.3-11.4-2.4-22.7-5-33.8-8.3zm75.9 34.7c-2.9 72-22.7 143.5-58.4 206.2-36.5 64.3-88.1 119.9-149 161.8-2.8 2.1-5.9 3.9-8.9 5.7-2.1 1.2-4.1 2.5-6.1 3.9l-6 3.8c-2.3 1.5-4.1 0-4.1 0-49.1-30.3-92-70-127.9-115-49-61.9-82.7-136.1-94.9-214.2-5.3-33.1-6.8-66.8-5-100.3-.1-5 3.9-9.4 8.8-9.9 55.6-11.3 108.9-32.4 158.7-59.6 21.4-12 42.7-24.5 62-39.6 0 0 3-2.7 5.8-.1 5.8 5.2 12.5 9.3 18.9 13.7 56.3 37 118.6 65.6 184.3 81.1 5.5 1.5 11.4 1.8 16.7 4.1 4.6 2.5 4.8 7.7 5 12.4l.5 6.8v-.1c.9 13 .9 26.3-.4 39.3zM722.5 358c-74.9-16.3-145.9-49.2-208.7-92.9-15.6 11.5-32.3 21.4-49.1 31-51.2 28.6-106.2 51.2-163.7 63.6-4.7 88.6 19.3 178.4 66.9 253.2 37 58.4 86.3 108.9 143.7 147.3C586 711.8 647 642.5 683.9 561.7c29.1-63.5 41.9-134.1 38.6-203.7z"
     style="fill:#fff"
     id="path21" />
  <path
     style="fill:#007bff;fill-opacity:1;stroke-width:1.26733"
     d="M 480.31683,1022.5764 C 374.77702,1014.1419 283.22516,979.97097 203.06794,919.09572 100.18617,840.96237 30.835664,727.33538 8.3610491,600.07921 2.7973656,568.57642 1.3428228,550.32181 1.3428228,512 c 0,-38.32181 1.4545428,-56.57642 7.0182263,-88.07921 C 37.4985,258.9382 145.62251,118.2995 297.28385,48.114115 347.41949,24.912492 398.6882,10.600727 456.87129,3.5649617 c 25.69664,-3.10735597 84.56078,-3.10735597 110.25742,0 81.2432,9.8242993 152.08304,34.6928793 218.59437,76.7383453 120.83053,76.383593 205.6591,203.179483 229.89432,343.630133 5.6791,32.91241 7.0398,49.93417 7.0398,88.06656 0,38.14959 -1.3666,55.23101 -7.0457,88.06656 -27.84304,160.98332 -133.50718,300.83197 -281.19566,372.16821 -52.34016,25.28126 -105.62499,40.64523 -166.65346,48.05223 -15.72617,1.9087 -73.33637,3.417 -87.44555,2.2894 z m 46.46518,-248.37415 c 41.99325,-27.16338 82.37131,-64.03167 115.05184,-105.05129 67.2562,-84.41791 101.75423,-184.48371 101.3652,-294.02225 -0.0714,-20.10204 -1.19813,-29.07688 -4.00252,-31.88126 -1.06287,-1.06287 -12.69611,-4.68464 -25.85164,-8.04836 -60.98864,-15.59414 -118.27828,-41.02926 -173.4637,-77.01345 -9.06139,-5.90855 -18.08733,-12.09667 -20.05764,-13.75137 -1.9703,-1.65469 -4.41965,-3.00853 -5.44297,-3.00853 -1.02332,0 -7.28553,3.88986 -13.91602,8.64413 -6.63048,4.75428 -19.29402,12.98361 -28.14118,18.28743 -54.99531,32.96925 -109.56745,55.8648 -165.40034,69.39311 -17.4868,4.23705 -20.95033,5.47969 -23.51591,8.43696 l -3.00872,3.46806 0.7031,36.18219 c 0.8706,44.80305 3.65696,67.50447 12.84129,104.62277 12.59705,50.91076 33.38814,98.01754 63.48386,143.83664 34.30438,52.22656 85.21565,103.72882 136.49699,138.08142 8.37112,5.60769 16.2767,10.19581 17.56794,10.19581 1.29124,0 8.17192,-3.76741 15.29042,-8.37201 z"
     id="path11339" />
  <path
     style="fill:#007bff;fill-opacity:1;stroke-width:1.26733"
     d="M 499.9604,751.17652 C 410.2084,686.49941 343.92574,594.51642 317.44365,497.89099 306.18162,456.7991 302.38008,429.67954 302.30973,389.92801 l -0.0523,-29.55715 17.10891,-4.37208 c 23.04373,-5.88869 57.7512,-17.68118 79.97626,-27.17338 35.17446,-15.02282 84.55804,-41.61427 107.0382,-57.6366 l 7.68773,-5.4793 3.71821,2.86718 c 15.34055,11.82934 61.0814,37.8711 89.64431,51.03743 33.1111,15.26285 77.58837,30.78909 105.30613,36.76053 l 10.0045,2.15535 -0.75483,28.57659 c -0.41516,15.71713 -1.36033,33.70926 -2.10039,39.98253 -6.37259,54.0187 -20.79672,103.04457 -43.86413,149.08885 -34.69164,69.24715 -92.22544,134.49253 -157.05203,178.10257 l -7.60396,5.11534 z m 24.83258,-26.50359 c 39.34164,-27.9737 74.6408,-62.5854 101.99473,-100.00834 30.03069,-41.08504 54.06718,-93.41841 64.5337,-140.50586 6.36084,-28.61651 8.39391,-46.26472 9.14486,-79.38229 l 0.70711,-31.18396 -16.96293,-3.99465 c -9.32961,-2.19705 -17.53221,-3.99001 -18.22798,-3.98435 -1.53649,0.0125 -265.50722,263.79603 -265.50722,265.31892 0,0.59157 4.95538,7.151 11.01195,14.57653 14.56071,17.85186 45.8753,48.86756 62.87475,62.27467 17.8162,14.05125 33.95792,25.24874 36.49043,25.31336 1.11139,0.0284 7.38465,-3.76246 13.9406,-8.42403 z M 506.69124,478.02164 631.27866,353.42941 615.04527,346.65685 c -30.5672,-12.75262 -58.39585,-27.64052 -85.67649,-45.83561 -8.22144,-5.48337 -15.28452,-9.96975 -15.69574,-9.96975 -0.41123,0 -7.08658,4.19859 -14.83413,9.33021 -42.64824,28.24823 -94.99128,52.60924 -141.78154,65.98666 -10.62314,3.03717 -22.54824,6.18409 -26.50024,6.99315 l -7.18544,1.47102 -0.93062,9.75304 c -1.12442,11.78407 1.17979,54.09099 3.94786,72.48572 5.64754,37.52972 17.48233,75.28694 34.64813,110.53992 8.29418,17.03356 18.6915,35.20265 20.14483,35.20265 0.50707,0 56.98628,-56.0665 125.50935,-124.59222 z"
     id="path12341" />
  <path
     style="fill:#007bff;fill-opacity:1;stroke-width:1.26733"
     d="M 463.84158,1020.7569 C 430.0178,1017.023 384.52077,1007.3698 353.58416,997.3633 237.65552,959.86595 137.16897,879.68658 73.912093,774.20975 36.878624,712.45878 13.242654,642.86039 4.2319057,569.0297 c -2.8036063,-22.97169 -2.8036063,-91.08771 0,-114.0594 C 26.712343,270.77405 141.23569,116.40699 309.82082,43.064235 357.08642,22.501392 418.50976,7.0739026 469.17039,3.0409535 c 27.74157,-2.20842845 88.28967,-0.7671173 110.55649,2.6317314 37.77309,5.7657511 62.43915,11.6274681 95.75827,22.7562851 177.2689,59.209033 308.96433,213.66308 340.11455,398.89061 5.3176,31.61943 6.1953,43.61717 6.1953,84.68042 0,41.11779 -0.8733,53.01968 -6.2304,84.91089 -23.07938,137.39417 -102.48159,260.45574 -218.41609,338.51241 -66.80382,44.97785 -138.13998,71.7562 -222.60582,83.5623 -16.59812,2.32 -94.44707,3.5657 -110.70111,1.7713 z M 525.00543,775.75767 C 574.76771,744.51595 628.87746,691.50749 663.58356,640 c 41.04056,-60.90852 66.64571,-127.97296 75.8477,-198.65867 4.63003,-35.56588 5.60354,-83.78172 1.90487,-94.34434 -1.68805,-4.82074 -3.78826,-5.71121 -30.86744,-13.08765 -65.22613,-17.76775 -117.15077,-41.22031 -172.77288,-78.03546 -12.00591,-7.94647 -22.50979,-14.44814 -23.34195,-14.44814 -0.83217,0 -10.96954,6.20742 -22.5275,13.79426 -58.49256,38.39549 -116.45708,64.29153 -182.15042,81.37697 -22.1542,5.76184 -26.26859,7.43356 -28.48422,11.57349 -2.95528,5.52199 0.31931,79.37173 4.67946,105.53251 17.28072,103.68417 69.75801,199.13802 149.86594,272.59947 27.61362,25.32253 69.19661,56.20062 75.75267,56.25127 1.46195,0.0114 7.54399,-3.04692 13.51564,-6.79604 z"
     id="path12380" />
</svg>
